<?xml version="1.0" encoding="utf-8"?>
<!-- Generator: Adobe Illustrator 27.0.0, SVG Export Plug-In . SVG Version: 6.00 Build 0)  -->
<svg version="1.1" id="Layer_1" xmlns="http://www.w3.org/2000/svg" xmlns:xlink="http://www.w3.org/1999/xlink" x="0px" y="0px"
	 viewBox="0 0 35.68 28.3" style="enable-background:new 0 0 35.68 28.3;" xml:space="preserve">
<style type="text/css">
	.st0{fill:#FFFFFF;}
	.st1{fill:#CCCCCC;}
	.st2{fill:none;stroke:#FFFFFF;stroke-width:2;stroke-miterlimit:10;}
</style>
<g>
	<g>
		<path class="st2" d="M32.67,5.92c1.15,3.02,1.1,14.03-0.28,16.95c-0.38,0.8-0.98,1.34-1.74,1.75c-1.08,0.56-7.34,0.82-13.48,0.82
			c-5.65,0-11.19-0.22-12.49-0.65c-1.2-0.4-2.02-1.19-2.45-2.39C1.2,19.48,0.97,7.24,3.04,4.83c0.7-0.82,1.61-1.31,2.69-1.42
			c2.46-0.27,7.21-0.4,11.9-0.4c5.83,0,11.56,0.2,12.65,0.6C31.43,4.02,32.24,4.78,32.67,5.92z M23.48,13.9
			c-3.32-1.74-6.61-3.46-9.9-5.19c-0.03,3.46-0.05,6.88-0.08,10.35C13.5,19.06,20.13,15.63,23.48,13.9z"/>
	</g>
</g>
</svg>
